HIERARCHY
ROOT root     
{
	OFFSET 0.0000 0.0000 0.0000
	CHANNELS 6 Xposition Yposition Zposition Zrotation Yrotation Xrotation
	JOINT pelvis   
	{
		OFFSET 0.0000 0.0000 0.0000
		CHANNELS 3 Zrotation Yrotation Xrotation
		JOINT thorax   
		{
			OFFSET 0.0000 23.0750 -5.0000
			CHANNELS 3 Zrotation Yrotation Xrotation
			JOINT rclavicle
			{
				OFFSET 0.0000 28.0009 0.0000
				CHANNELS 3 Zrotation Yrotation Xrotation
				JOINT rhumerus 
				{
					OFFSET -18.5725 5.5939 0.0000
					CHANNELS 3 Zrotation Yrotation Xrotation
					JOINT rradius  
					{
						OFFSET -24.8459 0.0000 0.0000
						CHANNELS 3 Zrotation Yrotation Xrotation
						JOINT rhand    
						{
							OFFSET -24.5477 0.0000 0.0000
							CHANNELS 3 Zrotation Yrotation Xrotation
							End Site
							{
								OFFSET -8.1826 0.0000 0.0000
							}
						}
					}
				}
			}
			JOINT lclavicle
			{
				OFFSET 0.0000 28.0009 0.0000
				CHANNELS 3 Zrotation Yrotation Xrotation
				JOINT lhumerus 
				{
					OFFSET 18.5725 5.5939 0.0000
					CHANNELS 3 Zrotation Yrotation Xrotation
					JOINT lradius  
					{
						OFFSET 24.8459 0.0000 0.0000
						CHANNELS 3 Zrotation Yrotation Xrotation
						JOINT lhand    
						{
							OFFSET 24.5477 0.0000 0.0000
							CHANNELS 3 Zrotation Yrotation Xrotation
							End Site
							{
								OFFSET 8.1826 0.0000 0.0000
							}
						}
					}
				}
			}
			JOINT head     
			{
				OFFSET 0.0000 35.2030 0.0000
				CHANNELS 3 Zrotation Yrotation Xrotation
				End Site
				{
					OFFSET 0.0000 11.7343 0.0000
				}
			}
		}
		JOINT rfemur   
		{
			OFFSET -8.2817 0.0000 0.0000
			CHANNELS 3 Zrotation Yrotation Xrotation
			JOINT rtibia   
			{
				OFFSET 0.0000 -43.3627 0.0000
				CHANNELS 3 Zrotation Yrotation Xrotation
				JOINT rfoot    
				{
					OFFSET 0.0000 -38.2947 0.0000
					CHANNELS 3 Zrotation Yrotation Xrotation
					JOINT rtoes    
					{
						OFFSET 0.0000 0.0000 16.6054
						CHANNELS 3 Zrotation Yrotation Xrotation
						End Site
						{
							OFFSET 0.0000 0.0000 5.5351
						}
					}
				}
			}
		}
		JOINT lfemur   
		{
			OFFSET 8.2817 0.0000 0.0000
			CHANNELS 3 Zrotation Yrotation Xrotation
			JOINT ltibia   
			{
				OFFSET 0.0000 -43.3627 0.0000
				CHANNELS 3 Zrotation Yrotation Xrotation
				JOINT lfoot    
				{
					OFFSET 0.0000 -38.2947 0.0000
					CHANNELS 3 Zrotation Yrotation Xrotation
					JOINT ltoes    
					{
						OFFSET 0.0000 0.0000 16.6054
						CHANNELS 3 Zrotation Yrotation Xrotation
						End Site
						{
							OFFSET 0.0000 0.0000 5.5351
						}
					}
				}
			}
		}
	}
}
MOTION
Frames: 9
Frame Time: .0333333
49.399 80.59 14.087 -139.802 -85.0041 -175.256 0 -0 0 -2.93103 -5.54661 14.7356 19.882 -7.41613 4.14006e-05 61.4474 -2.6739 4.33617 -3.68728e-07 48.122 -8.25805e-07 -5.56351 9.58499 -0.46679 -15.1046 13.8752 -4.32655e-05 -38.1931 -6.19752 -2.5672 180 -83.5435 180 5.35738 9.67357 0.453695 3.62675 1.56018 -29.643 14.6042 -11.4283 -77.4069 -0 -0 50.8843 7.66394e-09 -0.423794 -0.127004 0.000899988 7.66721e-09 -75.4851 -7.92373 6.82954 -73.2059 -0 -0 47.8157 5.85842e-07 6.94494 -7.89456 -0.958513 -1.02582e-05 -25.8329 
49.001 80.522 14.013 -139.102 -85.0012 -175.66 0 -0 0 -2.68878 -5.68875 14.4717 20.1018 -7.78839 -6.76462e-05 61.1615 -2.85921 4.43062 -0 48.219 -0 -5.26472 9.64199 -0.444391 -15.0058 14.0936 -1.61449e-05 -38.1323 -5.56466 -2.5599 180 -82.4587 180 5.12767 9.51342 0.426994 3.77091 1.75988 -29.7707 15.0062 -11.2635 -77.7365 -0 -0 50.1835 -4.2554e-09 -0.522895 0.115303 -0.0011 4.00956e-10 -75.7485 -7.75596 6.79953 -73.3861 -0 -0 48.2204 1.41177e-06 7.01565 -8.35418 -1.02429 8.34845e-06 -25.8432 
48.608 80.413 13.942 -138.592 -85.0213 -175.855 0 -0 0 -2.45868 -5.84201 14.2062 20.3167 -8.17283 -2.53208e-05 60.8792 -3.02881 4.50802 -0 48.3306 -0 -4.96289 9.69496 -0.42119 -14.9129 14.3332 -0.000103346 -38.1461 -4.90024 -2.53537 180 -81.4482 180 4.80992 9.3178 0.392204 3.89927 1.97261 -29.9481 15.3137 -11.0886 -78.1002 -0 -0 49.7163 2.51442e-08 -0.669095 0.299696 -0.00349999 -2.00684e-08 -75.8215 -7.58851 6.73407 -73.628 -0 -0 48.7342 -1.32558e-06 7.11488 -8.89696 -1.10589 -6.99971e-06 -25.814 
48.222 80.261 13.874 -138.31 -85.0388 -175.824 0 -0 0 -2.24394 -6.00532 13.9377 20.5283 -8.5657 -6.47789e-06 60.6065 -3.1911 4.56233 -0 48.4587 -0 -4.68369 9.73165 -0.398901 -14.8206 14.5915 -5.87955e-05 -38.2374 -4.20704 -2.4896 180 -80.5106 180 4.42313 9.10244 0.352295 4.01324 2.1908 -30.1744 15.505 -10.9047 -78.4986 -0 -0 49.5004 -1.4535e-08 -0.831606 0.404093 -0.00589999 -3.59989e-08 -75.7372 -7.42168 6.62724 -73.9348 -0 -0 49.3638 8.67319e-06 7.24496 -9.52188 -1.20481 -1.40283e-06 -25.7732 
47.841 80.062 13.811 -138.282 -85.0901 -175.517 0 -0 0 -2.04713 -6.17764 13.6662 20.7395 -8.9642 5.14227e-05 60.3411 -3.35469 4.59144 -0 48.6007 -0 -4.44754 9.73939 -0.379095 -14.7285 14.8625 2.34272e-06 -38.4028 -3.48705 -2.41778 180 -79.6655 -180 3.99478 8.88816 0.310598 4.11408 2.40639 -30.448 15.5641 -10.7152 -78.935 -0 -0 49.547 2.95377e-08 -0.981807 0.405196 -0.00689998 4.41178e-09 -75.5223 -7.25586 6.47335 -74.3036 -0 -0 50.1103 3.59903e-06 7.40612 -10.223 -1.32164 -2.92392e-06 -25.755 
47.466 79.816 13.751 -138.558 -85.1553 -174.908 0 -0 0 -1.87004 -6.35777 13.3935 20.9533 -9.3676 -9.3433e-06 60.0801 -3.52631 4.59912 -0 48.7591 -0 -4.26781 9.70741 -0.3626 -14.6399 15.1372 -6.94441e-05 -38.635 -2.74194 -2.31545 180 -78.913 -180 3.55608 8.69891 0.270601 4.20367 2.61224 -30.7636 15.4814 -10.5262 -79.4104 -0 -0 49.8604 -5.48768e-08 -1.0962 0.280603 -0.00539998 -6.39008e-08 -75.2037 -7.09233 6.26857 -74.7355 -0 -0 50.9772 3.21869e-06 7.59581 -10.9892 -1.45621 -3.86403e-06 -25.7915 
47.097 79.52 13.696 -139.147 -85.2555 -173.972 0 -0 0 -1.71372 -6.54565 13.1181 21.1716 -9.77084 -1.6408e-05 59.816 -3.71664 4.58625 -0 48.9415 -0 -4.14359 9.62864 -0.349189 -14.556 15.4074 9.79198e-06 -38.9251 -1.97421 -2.17875 180 -78.2689 180 3.1384 8.55614 0.234799 4.28487 2.80214 -31.1175 15.2551 -10.3441 -79.9296 -0 -0 50.4395 9.38521e-10 -1.159 0.0101999 -0.000200003 -7.76702e-10 -74.7933 -6.93268 6.00971 -75.2277 -0 -0 51.9637 4.60023e-05 7.80977 -11.8064 -1.60756 6.46812e-06 -25.9097 
46.732 79.174 13.646 -140.113 -85.3966 -172.649 0 -0 0 -1.57774 -6.74177 12.8428 21.3979 -10.173 4.24281e-05 59.5426 -3.93041 4.56024 -3.83881e-07 49.1504 -8.39418e-07 -4.06626 9.50298 -0.338105 -14.4812 15.6649 -8.90986e-05 -39.2591 -1.18629 -2.00505 180 -77.7222 180 2.76905 8.47683 0.205295 4.36063 2.97201 -31.5023 14.8946 -10.179 -80.4944 -0 -0 51.2752 6.11889e-08 -1.16451 -0.420404 0.00850013 -5.89264e-08 -74.2992 -6.77949 5.69558 -75.7803 -0 -0 53.068 3.44545e-06 8.04302 -12.6606 -1.77402 -2.47518e-08 -26.1221 
46.372 78.778 13.6 -141.474 -85.5694 -170.93 0 -0 0 -1.46047 -6.94696 12.5692 21.6336 -10.5783 3.58718e-05 59.2556 -4.16076 4.54008 -0 49.3818 -0 -4.02312 9.34271 -0.328901 -14.4198 15.9018 6.37638e-05 -39.6233 -0.382302 -1.79465 180 -77.2854 -180 2.46845 8.46938 0.182803 4.43399 3.11997 -31.9161 14.415 -10.0388 -81.1055 -0 -0 52.3511 1.95773e-08 -1.1176 -1.01901 0.0199001 -3.62522e-07 -73.715 -6.63442 5.32673 -76.3898 -0 -0 54.2891 2.72586e-05 8.29042 -13.536 -1.95335 5.79031e-06 -26.4286 
